<?xml version="1.0" encoding="UTF-8" standalone="no"?>
<svg width="100%" height="100%" viewBox="0 0 790 261" version="1.1" xmlns="http://www.w3.org/2000/svg" xmlns:xlink="http://www.w3.org/1999/xlink" xml:space="preserve" xmlns:serif="http://www.serif.com/" style="fill-rule:evenodd;clip-rule:evenodd;stroke-linejoin:round;stroke-miterlimit:2;">
    <g transform="matrix(1,0,0,1,-5303.706437,-2679.216076)">
        <g transform="matrix(4.166667,0,0,4.166667,3890.01621,2230.912023)">
            <path d="M502.252,107.648C491.079,107.644 480.18,107.63 502.806,107.593C503.222,107.592 503.611,107.609 503.974,107.647C523.563,107.647 514.415,107.652 503.989,107.649C505.899,107.853 507.121,108.664 508.061,110.737C511.445,118.207 516.866,122.94 525.578,122.729C527.828,122.674 528.753,123.798 528.74,125.97C528.69,134.792 528.691,143.614 528.632,152.436C528.614,155.005 527.595,156.518 524.713,156.993C517.101,158.249 510.462,161.26 506.697,168.591C505.906,170.13 504.522,170.057 503.114,170.057C436.191,170.035 505.589,170.014 438.666,170.007C414.091,170.004 389.517,170.029 364.943,170.068C363.344,170.071 362.006,169.923 361.147,168.28C357.476,161.251 351.028,158.322 343.71,157.061C340.775,156.555 339.457,155.299 339.444,152.432C339.405,143.358 339.37,134.285 339.286,125.212C339.263,122.808 340.388,122.065 342.718,121.808C350.613,120.938 356.806,117.24 360.382,109.936C361.436,107.784 362.997,107.62 365.001,107.622C393.106,107.661 421.212,107.656 449.318,107.66C466.963,107.662 484.607,107.66 502.252,107.66L502.252,107.648ZM425.492,157.869L430.993,157.869L430.993,119.469L425.492,119.469L425.492,157.869ZM470.04,157.869L475.541,157.869L477.159,149.617L484.656,149.617L486.274,157.869L491.775,157.869L483.199,119.469L478.615,119.469L470.04,157.869ZM483.631,144.439L478.13,144.439L480.826,130.525L480.934,130.525L483.631,144.439ZM456.071,119.469L450.247,119.469L445.824,146.273L445.716,146.273L441.348,119.469L435.523,119.469L443.343,157.869L448.197,157.869L456.071,119.469ZM394.049,119.469L388.548,119.469L388.548,148.7C388.548,150.066 388.224,151.073 387.577,151.72C386.93,152.368 386.121,152.691 385.15,152.691C384.179,152.691 383.37,152.368 382.723,151.72C382.076,151.073 381.752,150.066 381.752,148.7L381.752,119.469L376.251,119.469L376.251,149.239C376.251,150.498 376.485,151.657 376.952,152.718C377.42,153.779 378.067,154.723 378.894,155.55C379.721,156.377 380.665,157.024 381.725,157.491C382.786,157.959 383.928,158.192 385.15,158.192C386.372,158.192 387.523,157.959 388.602,157.491C389.68,157.024 390.633,156.377 391.46,155.55C392.287,154.723 392.925,153.779 393.375,152.718C393.824,151.657 394.049,150.498 394.049,149.239L394.049,119.469ZM460.602,157.869L466.103,157.869L466.103,119.469L460.602,119.469L460.602,157.869ZM400.089,157.869L405.59,157.869L405.59,134.786L405.698,134.786L414.112,157.869L419.289,157.869L419.289,119.469L413.788,119.469L413.788,142.606L413.68,142.606L405.375,119.469L400.089,119.469L400.089,157.869ZM524.423,111.869C524.268,114.037 523.102,115.321 520.893,115.36C518.495,115.403 517.123,114.114 517.241,111.681C517.348,109.475 518.697,108.288 520.91,108.344C523.103,108.4 524.349,109.562 524.423,111.869ZM351.593,165.258C351.474,167.358 350.543,168.825 348.26,168.951C346.126,169.07 344.541,168.196 344.375,165.881C344.205,163.514 345.401,162.055 347.831,161.944C350.04,161.843 351.316,162.999 351.593,165.258ZM524.504,165.563C524.233,167.809 522.947,169.029 520.754,168.916C518.596,168.806 517.242,167.443 517.194,165.29C517.145,163.068 518.57,161.723 520.72,161.723C523.076,161.723 524.247,163.293 524.504,165.563ZM351.663,112.018C351.38,114.206 350.183,115.634 348.009,115.6C345.666,115.563 344.323,114.017 344.31,111.699C344.297,109.624 345.671,108.426 347.657,108.378C350.01,108.32 351.273,109.777 351.663,112.018Z" style="fill: inherit;"/>
        </g>
    </g>
</svg>
